<?xml version="1.0" standalone="no"?>
<!DOCTYPE svg PUBLIC "-//W3C//DTD SVG 20010904//EN"
 "http://www.w3.org/TR/2001/REC-SVG-20010904/DTD/svg10.dtd">
<svg version="1.0" xmlns="http://www.w3.org/2000/svg"
 width="512.000000pt" height="512.000000pt" viewBox="0 0 512.000000 512.000000"
 preserveAspectRatio="xMidYMid meet">

<g transform="translate(0.000000,512.000000) scale(0.100000,-0.100000)"
fill="#000000" stroke="none">
<path d="M1660 4010 l0 -50 -50 0 -50 0 0 -100 0 -100 -150 0 -150 0 0 -50 0
-50 -50 0 -50 0 0 -50 0 -50 50 0 50 0 0 -50 0 -50 50 0 50 0 0 -50 0 -50 150
0 150 0 0 -100 0 -100 -50 0 -50 0 0 -250 0 -250 -50 0 -50 0 0 -150 0 -150
50 0 50 0 0 -50 0 -50 50 0 50 0 0 -50 0 -50 100 0 100 0 0 -50 0 -50 50 0 50
0 0 -100 0 -100 -150 0 -150 0 0 -50 0 -50 -50 0 -50 0 0 -50 0 -50 -50 0 -50
0 0 -50 0 -50 -50 0 -50 0 0 -50 0 -50 -50 0 -50 0 0 -350 0 -350 50 0 50 0 0
-50 0 -50 50 0 50 0 0 -50 0 -50 50 0 50 0 0 -50 0 -50 -200 0 -200 0 0 -50 0
-50 100 0 100 0 0 -50 0 -50 150 0 150 0 0 -50 0 -50 300 0 300 0 0 50 0 50
350 0 350 0 0 -50 0 -50 300 0 300 0 0 50 0 50 100 0 100 0 0 50 0 50 100 0
100 0 0 50 0 50 -150 0 -150 0 0 50 0 50 50 0 50 0 0 50 0 50 50 0 50 0 0 400
0 400 -50 0 -50 0 0 50 0 50 -50 0 -50 0 0 50 0 50 -50 0 -50 0 0 50 0 50
-100 0 -100 0 0 50 0 50 -50 0 -50 0 0 50 0 50 50 0 50 0 0 50 0 50 50 0 50 0
0 150 0 150 50 0 50 0 0 150 0 150 -50 0 -50 0 0 150 0 150 100 0 100 0 0 50
0 50 100 0 100 0 0 50 0 50 50 0 50 0 0 50 0 50 50 0 50 0 0 50 0 50 -50 0
-50 0 0 50 0 50 -50 0 -50 0 0 -50 0 -50 -200 0 -200 0 0 50 0 50 -100 0 -100
0 0 50 0 50 -100 0 -100 0 0 50 0 50 -100 0 -100 0 0 50 0 50 -250 0 -250 0 0
-50 0 -50 -150 0 -150 0 0 -50 0 -50 -50 0 -50 0 0 100 0 100 -50 0 -50 0 0
100 0 100 -50 0 -50 0 0 50 0 50 -50 0 -50 0 0 -50z m300 -1000 l0 -50 100 0
100 0 0 -50 0 -50 100 0 100 0 0 -50 0 -50 100 0 100 0 0 50 0 50 150 0 150 0
0 50 0 50 100 0 100 0 0 50 0 50 100 0 100 0 0 -50 0 -50 -50 0 -50 0 0 -50 0
-50 -50 0 -50 0 0 -50 0 -50 100 0 100 0 0 -100 0 -100 50 0 50 0 0 50 0 50
50 0 50 0 0 -150 0 -150 -50 0 -50 0 0 -150 0 -150 -100 0 -100 0 0 -50 0 -50
-200 0 -200 0 0 -50 0 -50 250 0 250 0 0 -50 0 -50 50 0 50 0 0 -50 0 -50 100
0 100 0 0 -50 0 -50 50 0 50 0 0 -50 0 -50 50 0 50 0 0 -400 0 -400 -100 0
-100 0 0 50 0 50 -50 0 -50 0 0 -50 0 -50 -50 0 -50 0 0 50 0 50 50 0 50 0 0
300 0 300 -50 0 -50 0 0 -100 0 -100 -100 0 -100 0 0 -150 0 -150 38 0 c20 0
42 -4 48 -8 7 -4 12 -44 13 -99 l2 -93 -100 0 -101 0 0 55 0 55 -34 0 c-57 0
-65 7 -59 51 l6 39 -57 0 -56 0 0 -50 0 -50 -200 0 -200 0 0 50 0 50 -49 0
-50 0 -3 -42 -3 -43 -47 -3 -47 -3 -3 -52 -3 -52 -147 -3 -148 -3 0 51 0 50
50 0 50 0 0 50 0 50 -50 0 -50 0 0 50 0 50 50 0 50 0 0 -50 0 -50 55 0 c53 0
55 1 55 28 0 59 9 72 51 72 l39 0 0 50 0 50 -100 0 -100 0 0 50 0 50 -100 0
-100 0 0 100 0 100 50 0 50 0 0 100 0 100 -50 0 -50 0 0 -50 0 -50 -50 0 -50
0 0 -100 0 -100 -50 0 -50 0 0 -100 0 -100 50 0 50 0 0 -100 0 -100 -50 0 -50
0 0 -100 0 -100 -100 0 -100 0 0 50 0 50 -50 0 -50 0 0 350 0 350 50 0 50 0 0
50 0 50 50 0 50 0 0 50 0 50 50 0 50 0 0 50 0 50 150 0 150 0 0 50 0 50 200 0
200 0 0 50 0 50 -100 0 -100 0 0 50 0 50 -100 0 -100 0 0 50 0 50 -50 0 -50 0
0 50 0 50 -100 0 -100 0 0 50 0 50 -50 0 -50 0 0 150 0 150 150 0 150 0 0 -50
0 -50 50 0 50 0 0 200 0 200 -50 0 -50 0 0 50 0 50 50 0 50 0 0 -50z m-100
-2300 l0 -50 -50 0 -50 0 0 50 0 50 50 0 50 0 0 -50z m900 -100 l0 -50 50 0
50 0 0 -50 0 -50 -250 0 -250 0 0 50 0 50 100 0 100 0 0 50 0 50 100 0 100 0
0 -50z m-804 -66 c-3 -9 -6 -31 -6 -50 0 -34 0 -34 -45 -34 l-45 0 0 -50 0
-50 50 0 50 0 0 50 0 50 50 0 50 0 0 50 0 50 100 -2 100 -3 0 -97 0 -98 -50 0
-50 0 0 50 0 50 -50 0 -50 0 0 -56 c0 -56 0 -56 27 -51 15 3 37 1 50 -4 19 -7
23 -16 23 -49 l0 -40 -250 0 -251 0 3 98 3 97 47 3 c42 3 49 6 53 28 17 82 5
74 106 74 79 0 90 -2 85 -16z m1204 -34 l0 -50 50 0 50 0 0 50 0 50 100 0 100
0 0 -50 0 -50 50 0 50 0 0 -100 0 -100 -251 0 -250 0 3 43 3 42 48 3 47 3 0
55 0 54 -50 0 -50 0 0 -50 0 -50 -50 0 -50 0 0 100 0 100 100 0 100 0 0 -50z"/>
<path d="M2260 2710 l0 -50 50 0 50 0 0 50 0 50 -50 0 -50 0 0 -50z"/>
<path d="M2960 2710 l0 -50 50 0 50 0 0 50 0 50 -50 0 -50 0 0 -50z"/>
<path d="M2260 2460 l0 -100 50 0 50 0 0 50 0 50 100 0 100 0 0 50 0 50 -150
0 -150 0 0 -100z"/>
<path d="M2960 2460 l0 -100 50 0 50 0 0 -50 0 -50 -200 0 -200 0 0 -50 0 -50
200 0 200 0 0 50 0 50 50 0 50 0 0 50 0 50 -50 0 -50 0 0 50 0 50 100 0 100 0
0 50 0 50 -150 0 -150 0 0 -100z"/>
<path d="M3260 1460 l0 -100 50 0 50 0 0 100 0 100 -50 0 -50 0 0 -100z"/>
<path d="M2360 1010 l0 -50 39 0 c21 0 66 -3 100 -6 l61 -7 0 57 0 56 -100 0
-100 0 0 -50z"/>
<path d="M2860 1004 c0 -34 4 -53 10 -49 6 3 10 1 10 -4 0 -7 29 -11 76 -11
90 0 104 10 104 74 l0 46 -100 0 -100 0 0 -56z"/>
<path d="M3260 410 l0 -50 50 0 50 0 0 50 0 50 -50 0 -50 0 0 -50z"/>
</g>
</svg>
